<svg width="320" height="58" viewBox="0 0 320 58" fill="none" xmlns="http://www.w3.org/2000/svg">
<rect x="0.5" y="0.5" width="319" height="57" fill="#282C33"/>
<rect x="8.5" y="21.5" width="15" height="15" fill="#6322C8" stroke="#6322C8"/>
<path d="M39.728 12.736C40.4747 12.736 41.104 12.8347 41.616 13.032C42.1333 13.224 42.6133 13.5013 43.056 13.864L42.088 15.016C41.7573 14.7387 41.4027 14.5333 41.024 14.4C40.6453 14.2667 40.2427 14.2 39.816 14.2C39.2667 14.2 38.76 14.3387 38.296 14.616C37.832 14.8933 37.4587 15.344 37.176 15.968C36.8987 16.592 36.76 17.424 36.76 18.464C36.76 19.4827 36.8933 20.304 37.16 20.928C37.4267 21.552 37.792 22.0053 38.256 22.288C38.72 22.5707 39.24 22.712 39.816 22.712C40.408 22.712 40.8987 22.616 41.288 22.424C41.6773 22.2267 42.0213 22.0053 42.32 21.76L43.216 22.904C42.848 23.2613 42.3813 23.5707 41.816 23.832C41.2507 24.088 40.5627 24.216 39.752 24.216C38.8187 24.216 37.9787 23.9973 37.232 23.56C36.4907 23.1173 35.904 22.4693 35.472 21.616C35.0453 20.7627 34.832 19.712 34.832 18.464C34.832 17.2267 35.0533 16.184 35.496 15.336C35.9387 14.4827 36.5307 13.8373 37.272 13.4C38.0133 12.9573 38.832 12.736 39.728 12.736ZM46.8098 15.552V21.456C46.8098 21.9573 46.9084 22.3147 47.1058 22.528C47.3084 22.7413 47.6124 22.848 48.0178 22.848C48.4018 22.848 48.7724 22.7333 49.1298 22.504C49.4871 22.2747 49.7698 21.9947 49.9778 21.664V15.552H51.7698V24H50.2258L50.1138 22.92C49.7991 23.3413 49.4018 23.664 48.9218 23.888C48.4418 24.1067 47.9511 24.216 47.4498 24.216C46.6338 24.216 46.0231 23.992 45.6178 23.544C45.2178 23.0907 45.0178 22.4693 45.0178 21.68V15.552H46.8098ZM54.6915 24V22.72H55.9315V16.824H54.6915V15.552H57.2995L57.6275 17.512C57.9422 16.8027 58.3315 16.264 58.7955 15.896C59.2648 15.5227 59.8675 15.336 60.6035 15.336C60.8542 15.336 61.0782 15.3573 61.2755 15.4C61.4782 15.4373 61.6782 15.488 61.8755 15.552L61.3395 17.088C61.1688 17.04 61.0088 17.0053 60.8595 16.984C60.7102 16.9573 60.5448 16.944 60.3635 16.944C59.7502 16.944 59.2195 17.1733 58.7715 17.632C58.3288 18.0907 57.9795 18.7413 57.7235 19.584V22.72H59.4275V24H54.6915ZM60.2915 18.664V16.584L60.5155 15.552H61.8755L61.5715 18.664H60.2915ZM64.2853 24V22.72H65.5253V16.824H64.2853V15.552H66.8932L67.2213 17.512C67.5359 16.8027 67.9253 16.264 68.3893 15.896C68.8586 15.5227 69.4613 15.336 70.1973 15.336C70.4479 15.336 70.6719 15.3573 70.8693 15.4C71.0719 15.4373 71.2719 15.488 71.4693 15.552L70.9333 17.088C70.7626 17.04 70.6026 17.0053 70.4533 16.984C70.3039 16.9573 70.1386 16.944 69.9573 16.944C69.3439 16.944 68.8133 17.1733 68.3653 17.632C67.9226 18.0907 67.5733 18.7413 67.3173 19.584V22.72H69.0213V24H64.2853ZM69.8853 18.664V16.584L70.1093 15.552H71.4693L71.1653 18.664H69.8853ZM75.287 20.352C75.3243 20.928 75.447 21.4 75.655 21.768C75.863 22.1307 76.135 22.3973 76.471 22.568C76.8123 22.7387 77.1857 22.824 77.591 22.824C78.007 22.824 78.391 22.76 78.743 22.632C79.095 22.504 79.4497 22.3227 79.807 22.088L80.583 23.16C80.1883 23.48 79.727 23.736 79.199 23.928C78.671 24.12 78.1057 24.216 77.503 24.216C76.6283 24.216 75.887 24.0293 75.279 23.656C74.6763 23.2827 74.2177 22.7627 73.903 22.096C73.5883 21.4293 73.431 20.6587 73.431 19.784C73.431 18.936 73.5857 18.1787 73.895 17.512C74.2043 16.84 74.647 16.3093 75.223 15.92C75.799 15.5253 76.487 15.328 77.287 15.328C78.039 15.328 78.6843 15.4987 79.223 15.84C79.767 16.1813 80.1857 16.6667 80.479 17.296C80.7777 17.92 80.927 18.672 80.927 19.552C80.927 19.696 80.9217 19.84 80.911 19.984C80.9057 20.1227 80.8977 20.2453 80.887 20.352H75.287ZM77.303 16.656C76.743 16.656 76.279 16.856 75.911 17.256C75.5483 17.656 75.3377 18.28 75.279 19.128H79.191C79.175 18.3333 79.0043 17.7227 78.679 17.296C78.359 16.8693 77.9003 16.656 77.303 16.656ZM83.3928 24V15.552H84.9368L85.0728 16.648C85.4248 16.216 85.8408 15.888 86.3208 15.664C86.8008 15.44 87.2941 15.328 87.8008 15.328C88.5901 15.328 89.1794 15.5493 89.5688 15.992C89.9634 16.4293 90.1608 17.0453 90.1608 17.84V24H88.3688V18.728C88.3688 18.2373 88.3394 17.8427 88.2808 17.544C88.2221 17.2453 88.1048 17.0293 87.9288 16.896C87.7581 16.7627 87.5021 16.696 87.1608 16.696C86.8888 16.696 86.6301 16.7547 86.3848 16.872C86.1394 16.9893 85.9154 17.144 85.7128 17.336C85.5101 17.5227 85.3341 17.7227 85.1848 17.936V24H83.3928ZM100.043 23.552C99.7332 23.7493 99.3625 23.9093 98.9305 24.032C98.4985 24.1547 98.0478 24.216 97.5785 24.216C96.5972 24.216 95.8505 23.9627 95.3385 23.456C94.8318 22.944 94.5785 22.272 94.5785 21.44V16.856H92.6985V15.552H94.5785V13.664L96.3705 13.448V15.552H99.2185L99.0185 16.856H96.3705V21.424C96.3705 21.8773 96.4825 22.216 96.7065 22.44C96.9358 22.6587 97.3092 22.768 97.8265 22.768C98.1358 22.768 98.4212 22.7307 98.6825 22.656C98.9438 22.5813 99.1812 22.4853 99.3945 22.368L100.043 23.552ZM106.292 12.16V21.696C106.292 22.0853 106.41 22.3627 106.644 22.528C106.884 22.688 107.194 22.768 107.572 22.768C107.818 22.768 108.05 22.7413 108.268 22.688C108.487 22.6347 108.7 22.568 108.908 22.488L109.364 23.736C109.114 23.864 108.804 23.976 108.436 24.072C108.074 24.168 107.658 24.216 107.188 24.216C106.34 24.216 105.679 23.9787 105.204 23.504C104.735 23.024 104.5 22.368 104.5 21.536V13.48H101.948V12.16H106.292ZM119.566 15.552L116.654 24.032C116.435 24.672 116.155 25.2347 115.814 25.72C115.473 26.2107 115.035 26.6053 114.502 26.904C113.969 27.2027 113.307 27.3867 112.518 27.456L112.286 26.112C112.857 26.0213 113.31 25.888 113.646 25.712C113.987 25.5413 114.257 25.3147 114.454 25.032C114.657 24.7493 114.835 24.4053 114.99 24H114.382L111.534 15.552H113.438L115.566 22.752L117.726 15.552H119.566ZM137.97 24H135.73L134.778 18L133.754 24H131.562L130.13 15.552H131.858L132.738 22.888L133.914 16.624H135.706L136.802 22.888L137.682 15.552H139.345L137.97 24ZM144.339 15.328C145.166 15.328 145.862 15.512 146.427 15.88C146.993 16.248 147.419 16.7627 147.707 17.424C148.001 18.0853 148.147 18.864 148.147 19.76C148.147 20.6507 147.998 21.432 147.699 22.104C147.406 22.7707 146.974 23.2907 146.403 23.664C145.838 24.032 145.147 24.216 144.331 24.216C143.515 24.216 142.822 24.0373 142.251 23.68C141.686 23.3173 141.254 22.8027 140.955 22.136C140.662 21.4693 140.515 20.6827 140.515 19.776C140.515 18.896 140.662 18.1227 140.955 17.456C141.254 16.7893 141.689 16.2693 142.259 15.896C142.83 15.5173 143.523 15.328 144.339 15.328ZM144.339 16.72C143.694 16.72 143.209 16.968 142.883 17.464C142.558 17.9547 142.395 18.7253 142.395 19.776C142.395 20.8213 142.555 21.592 142.875 22.088C143.201 22.584 143.686 22.832 144.331 22.832C144.977 22.832 145.459 22.584 145.779 22.088C146.105 21.592 146.267 20.816 146.267 19.76C146.267 18.72 146.107 17.9547 145.787 17.464C145.467 16.968 144.985 16.72 144.339 16.72ZM150.629 24V22.72H151.869V16.824H150.629V15.552H153.237L153.565 17.512C153.88 16.8027 154.269 16.264 154.733 15.896C155.202 15.5227 155.805 15.336 156.541 15.336C156.792 15.336 157.016 15.3573 157.213 15.4C157.416 15.4373 157.616 15.488 157.813 15.552L157.277 17.088C157.106 17.04 156.946 17.0053 156.797 16.984C156.648 16.9573 156.482 16.944 156.301 16.944C155.688 16.944 155.157 17.1733 154.709 17.632C154.266 18.0907 153.917 18.7413 153.661 19.584V22.72H155.365V24H150.629ZM156.229 18.664V16.584L156.453 15.552H157.813L157.509 18.664H156.229ZM167.583 15.552L164.167 19.328L167.943 24H165.751L162.119 19.376L165.495 15.552H167.583ZM161.991 11.96V24H160.199V12.16L161.991 11.96ZM174.353 15.552V22.688H176.649V24H170.033V22.688H172.561V16.864H170.113V15.552H174.353ZM173.105 11.416C173.457 11.416 173.739 11.5227 173.953 11.736C174.171 11.9493 174.281 12.216 174.281 12.536C174.281 12.856 174.171 13.1253 173.953 13.344C173.739 13.5627 173.457 13.672 173.105 13.672C172.763 13.672 172.483 13.5627 172.265 13.344C172.046 13.1253 171.937 12.856 171.937 12.536C171.937 12.216 172.046 11.9493 172.265 11.736C172.483 11.5227 172.763 11.416 173.105 11.416ZM179.33 24V15.552H180.874L181.01 16.648C181.362 16.216 181.778 15.888 182.258 15.664C182.738 15.44 183.232 15.328 183.738 15.328C184.528 15.328 185.117 15.5493 185.506 15.992C185.901 16.4293 186.098 17.0453 186.098 17.84V24H184.306V18.728C184.306 18.2373 184.277 17.8427 184.218 17.544C184.16 17.2453 184.042 17.0293 183.866 16.896C183.696 16.7627 183.44 16.696 183.098 16.696C182.826 16.696 182.568 16.7547 182.322 16.872C182.077 16.9893 181.853 17.144 181.65 17.336C181.448 17.5227 181.272 17.7227 181.122 17.936V24H179.33ZM196.036 14.48L196.516 15.968C196.18 16.08 195.809 16.1547 195.404 16.192C195.004 16.2293 194.556 16.248 194.06 16.248C194.567 16.472 194.948 16.76 195.204 17.112C195.46 17.4587 195.588 17.8853 195.588 18.392C195.588 18.9413 195.455 19.432 195.188 19.864C194.921 20.296 194.54 20.6347 194.044 20.88C193.548 21.1253 192.953 21.248 192.26 21.248C192.015 21.248 191.801 21.2373 191.62 21.216C191.444 21.1947 191.271 21.16 191.1 21.112C190.993 21.1867 190.903 21.288 190.828 21.416C190.759 21.5387 190.724 21.6693 190.724 21.808C190.724 21.9787 190.793 22.128 190.932 22.256C191.076 22.3787 191.359 22.44 191.78 22.44H193.252C193.855 22.44 194.385 22.544 194.844 22.752C195.308 22.9547 195.671 23.2347 195.932 23.592C196.199 23.944 196.332 24.344 196.332 24.792C196.332 25.6347 195.969 26.288 195.244 26.752C194.519 27.216 193.473 27.448 192.108 27.448C191.143 27.448 190.385 27.3493 189.836 27.152C189.287 26.9547 188.9 26.6613 188.676 26.272C188.452 25.8827 188.34 25.4053 188.34 24.84H189.948C189.948 25.1333 190.004 25.376 190.116 25.568C190.233 25.76 190.449 25.904 190.764 26C191.079 26.096 191.532 26.144 192.124 26.144C192.716 26.144 193.185 26.0933 193.532 25.992C193.884 25.896 194.137 25.7547 194.292 25.568C194.452 25.3867 194.532 25.168 194.532 24.912C194.532 24.5707 194.383 24.3067 194.084 24.12C193.785 23.9333 193.385 23.84 192.884 23.84H191.436C190.636 23.84 190.049 23.6773 189.676 23.352C189.308 23.0267 189.124 22.648 189.124 22.216C189.124 21.928 189.204 21.6507 189.364 21.384C189.529 21.1173 189.764 20.8853 190.068 20.688C189.561 20.4213 189.191 20.0987 188.956 19.72C188.727 19.336 188.612 18.872 188.612 18.328C188.612 17.7307 188.761 17.208 189.06 16.76C189.359 16.312 189.772 15.9627 190.3 15.712C190.833 15.4613 191.447 15.336 192.14 15.336C192.817 15.336 193.383 15.3013 193.836 15.232C194.289 15.1573 194.684 15.0533 195.02 14.92C195.361 14.7867 195.7 14.64 196.036 14.48ZM192.156 16.568C191.585 16.568 191.156 16.7307 190.868 17.056C190.58 17.376 190.436 17.7947 190.436 18.312C190.436 18.8453 190.583 19.2747 190.876 19.6C191.175 19.92 191.609 20.08 192.18 20.08C192.708 20.08 193.111 19.9253 193.388 19.616C193.671 19.3067 193.812 18.8667 193.812 18.296C193.812 17.72 193.673 17.288 193.396 17C193.119 16.712 192.705 16.568 192.156 16.568ZM211.496 15.328C212.322 15.328 213.018 15.512 213.584 15.88C214.149 16.248 214.576 16.7627 214.864 17.424C215.157 18.0853 215.304 18.864 215.304 19.76C215.304 20.6507 215.154 21.432 214.856 22.104C214.562 22.7707 214.13 23.2907 213.56 23.664C212.994 24.032 212.304 24.216 211.488 24.216C210.672 24.216 209.978 24.0373 209.408 23.68C208.842 23.3173 208.41 22.8027 208.112 22.136C207.818 21.4693 207.672 20.6827 207.672 19.776C207.672 18.896 207.818 18.1227 208.112 17.456C208.41 16.7893 208.845 16.2693 209.416 15.896C209.986 15.5173 210.68 15.328 211.496 15.328ZM211.496 16.72C210.85 16.72 210.365 16.968 210.04 17.464C209.714 17.9547 209.552 18.7253 209.552 19.776C209.552 20.8213 209.712 21.592 210.032 22.088C210.357 22.584 210.842 22.832 211.488 22.832C212.133 22.832 212.616 22.584 212.936 22.088C213.261 21.592 213.424 20.816 213.424 19.76C213.424 18.72 213.264 17.9547 212.944 17.464C212.624 16.968 212.141 16.72 211.496 16.72ZM217.705 24V15.552H219.249L219.385 16.648C219.737 16.216 220.153 15.888 220.633 15.664C221.113 15.44 221.607 15.328 222.113 15.328C222.903 15.328 223.492 15.5493 223.881 15.992C224.276 16.4293 224.473 17.0453 224.473 17.84V24H222.681V18.728C222.681 18.2373 222.652 17.8427 222.593 17.544C222.535 17.2453 222.417 17.0293 222.241 16.896C222.071 16.7627 221.815 16.696 221.473 16.696C221.201 16.696 220.943 16.7547 220.697 16.872C220.452 16.9893 220.228 17.144 220.025 17.336C219.823 17.5227 219.647 17.7227 219.497 17.936V24H217.705Z" fill="black"/>
<path d="M40.84 37.48C40.84 37.0213 40.752 36.6507 40.576 36.368C40.4053 36.08 40.1547 35.8693 39.824 35.736C39.4933 35.6027 39.096 35.536 38.632 35.536H37.488V39.544H38.696C39.1333 39.544 39.5093 39.4773 39.824 39.344C40.144 39.2053 40.392 38.984 40.568 38.68C40.7493 38.376 40.84 37.976 40.84 37.48ZM43.112 37.464C43.112 38.3227 42.928 39.0267 42.56 39.576C42.1973 40.12 41.688 40.5227 41.032 40.784C40.376 41.04 39.6187 41.168 38.76 41.168H37.488V45H35.296V33.936H38.552C39.9867 33.936 41.104 34.2267 41.904 34.808C42.7093 35.3893 43.112 36.2747 43.112 37.464ZM48.4018 36.288C49.2444 36.288 49.9591 36.472 50.5458 36.84C51.1324 37.208 51.5778 37.728 51.8818 38.4C52.1911 39.0667 52.3458 39.848 52.3458 40.744C52.3458 41.6613 52.1911 42.456 51.8818 43.128C51.5724 43.8 51.1244 44.32 50.5378 44.688C49.9511 45.056 49.2364 45.24 48.3938 45.24C47.5564 45.24 46.8418 45.0613 46.2498 44.704C45.6631 44.3413 45.2151 43.8267 44.9058 43.16C44.5964 42.488 44.4418 41.688 44.4418 40.76C44.4418 39.8747 44.5964 39.096 44.9058 38.424C45.2151 37.752 45.6658 37.2293 46.2578 36.856C46.8498 36.4773 47.5644 36.288 48.4018 36.288ZM48.4018 37.88C47.8098 37.88 47.3671 38.112 47.0738 38.576C46.7858 39.04 46.6418 39.768 46.6418 40.76C46.6418 41.7627 46.7858 42.496 47.0738 42.96C47.3618 43.4187 47.8018 43.648 48.3938 43.648C48.9858 43.648 49.4258 43.4187 49.7138 42.96C50.0018 42.496 50.1458 41.7573 50.1458 40.744C50.1458 39.7573 50.0018 39.0347 49.7138 38.576C49.4258 38.112 48.9884 37.88 48.4018 37.88ZM54.5555 45V43.536H55.7475V37.984H54.5555V36.528H57.3555L57.7475 38.472C58.0568 37.752 58.4462 37.2107 58.9155 36.848C59.3848 36.48 59.9742 36.296 60.6835 36.296C60.9555 36.296 61.1955 36.3173 61.4035 36.36C61.6168 36.4027 61.8195 36.4587 62.0115 36.528L61.3795 38.304C61.2142 38.2613 61.0568 38.2293 60.9075 38.208C60.7582 38.1813 60.5902 38.168 60.4035 38.168C59.8168 38.168 59.3048 38.3973 58.8675 38.856C58.4355 39.3093 58.0995 39.9253 57.8595 40.704V43.536H59.5475V45H54.5555ZM60.2275 39.832V37.584L60.5155 36.528H62.0115L61.6355 39.832H60.2275ZM71.3813 44.528C71.0666 44.736 70.6853 44.9067 70.2373 45.04C69.7893 45.1733 69.3039 45.24 68.7813 45.24C67.7466 45.24 66.9679 44.9733 66.4453 44.44C65.9226 43.9013 65.6613 43.1867 65.6613 42.296V38.024H63.8213V36.528H65.6613V34.664L67.7733 34.408V36.528H70.5733L70.3573 38.024H67.7733V42.288C67.7733 42.7253 67.8799 43.0453 68.0933 43.248C68.3066 43.4507 68.6506 43.552 69.1253 43.552C69.4293 43.552 69.7066 43.5173 69.9573 43.448C70.2133 43.3733 70.4453 43.28 70.6533 43.168L71.3813 44.528ZM78.919 32.92C79.4843 32.92 79.9857 32.9653 80.423 33.056C80.8603 33.1467 81.2577 33.2693 81.615 33.424L81.007 34.848C80.7243 34.7307 80.4283 34.6453 80.119 34.592C79.8097 34.5387 79.5003 34.512 79.191 34.512C78.6577 34.512 78.2683 34.6133 78.023 34.816C77.783 35.0133 77.663 35.3307 77.663 35.768V37.104H80.463L80.231 38.616H77.663V45H75.559V38.616H73.695V37.104H75.559V35.72C75.559 35.1707 75.6923 34.688 75.959 34.272C76.2257 33.8507 76.6097 33.52 77.111 33.28C77.6177 33.04 78.2203 32.92 78.919 32.92ZM86.7768 36.288C87.6194 36.288 88.3341 36.472 88.9208 36.84C89.5074 37.208 89.9528 37.728 90.2568 38.4C90.5661 39.0667 90.7208 39.848 90.7208 40.744C90.7208 41.6613 90.5661 42.456 90.2568 43.128C89.9474 43.8 89.4994 44.32 88.9128 44.688C88.3261 45.056 87.6114 45.24 86.7688 45.24C85.9314 45.24 85.2168 45.0613 84.6248 44.704C84.0381 44.3413 83.5901 43.8267 83.2808 43.16C82.9714 42.488 82.8168 41.688 82.8168 40.76C82.8168 39.8747 82.9714 39.096 83.2808 38.424C83.5901 37.752 84.0408 37.2293 84.6328 36.856C85.2248 36.4773 85.9394 36.288 86.7768 36.288ZM86.7768 37.88C86.1848 37.88 85.7421 38.112 85.4488 38.576C85.1608 39.04 85.0168 39.768 85.0168 40.76C85.0168 41.7627 85.1608 42.496 85.4488 42.96C85.7368 43.4187 86.1768 43.648 86.7688 43.648C87.3608 43.648 87.8008 43.4187 88.0888 42.96C88.3768 42.496 88.5208 41.7573 88.5208 40.744C88.5208 39.7573 88.3768 39.0347 88.0888 38.576C87.8008 38.112 87.3634 37.88 86.7768 37.88ZM96.8825 33.144V42.536C96.8825 42.904 96.9892 43.1653 97.2025 43.32C97.4212 43.4747 97.7145 43.552 98.0825 43.552C98.3118 43.552 98.5332 43.528 98.7465 43.48C98.9598 43.4267 99.1625 43.3627 99.3545 43.288L99.8745 44.728C99.6078 44.8613 99.2825 44.9787 98.8985 45.08C98.5198 45.1867 98.0798 45.24 97.5785 45.24C96.6558 45.24 95.9572 44.976 95.4825 44.448C95.0078 43.92 94.7705 43.208 94.7705 42.312V34.64H92.2345V33.144H96.8825ZM107.316 36.528V43.504H109.548V45H102.724V43.504H105.204V38.024H102.804V36.528H107.316ZM105.948 32.256C106.338 32.256 106.652 32.376 106.892 32.616C107.138 32.856 107.26 33.1547 107.26 33.512C107.26 33.8693 107.138 34.1707 106.892 34.416C106.652 34.656 106.338 34.776 105.948 34.776C105.559 34.776 105.242 34.656 104.996 34.416C104.751 34.1707 104.628 33.8693 104.628 33.512C104.628 33.1547 104.751 32.856 104.996 32.616C105.242 32.376 105.559 32.256 105.948 32.256ZM115.558 36.288C116.401 36.288 117.115 36.472 117.702 36.84C118.289 37.208 118.734 37.728 119.038 38.4C119.347 39.0667 119.502 39.848 119.502 40.744C119.502 41.6613 119.347 42.456 119.038 43.128C118.729 43.8 118.281 44.32 117.694 44.688C117.107 45.056 116.393 45.24 115.55 45.24C114.713 45.24 113.998 45.0613 113.406 44.704C112.819 44.3413 112.371 43.8267 112.062 43.16C111.753 42.488 111.598 41.688 111.598 40.76C111.598 39.8747 111.753 39.096 112.062 38.424C112.371 37.752 112.822 37.2293 113.414 36.856C114.006 36.4773 114.721 36.288 115.558 36.288ZM115.558 37.88C114.966 37.88 114.523 38.112 114.23 38.576C113.942 39.04 113.798 39.768 113.798 40.76C113.798 41.7627 113.942 42.496 114.23 42.96C114.518 43.4187 114.958 43.648 115.55 43.648C116.142 43.648 116.582 43.4187 116.87 42.96C117.158 42.496 117.302 41.7573 117.302 40.744C117.302 39.7573 117.158 39.0347 116.87 38.576C116.582 38.112 116.145 37.88 115.558 37.88Z" fill="white"/>
<rect x="0.5" y="0.5" width="319" height="57" stroke="black"/>
</svg>
