<svg width="120" height="21" viewBox="0 0 120 21" fill="none" xmlns="http://www.w3.org/2000/svg">
<path fill-rule="evenodd" clip-rule="evenodd" d="M12 2.5H8V6.5H4H0V10.5V14.5V18.5H4H8V14.5H12H16V10.5V6.5V2.5H12ZM4 14.5H8V10.5H12V6.5H8V10.5H4V14.5Z" fill="white"/>
<path d="M27.712 13.912H32.992L32.72 16H24.624V14.04L29.888 6.936H25.2V4.912H32.872V6.888L27.712 13.912ZM42.7778 7.504L39.9858 11.264L43.0098 16H40.1298L37.3378 11.344L40.1298 7.504H42.7778ZM37.2418 3.864V16H34.7138V4.128L37.2418 3.864ZM51.4595 13.552C51.4595 13.872 51.5022 14.104 51.5875 14.248C51.6782 14.392 51.8222 14.5013 52.0195 14.576L51.4995 16.24C50.9982 16.192 50.5742 16.0827 50.2275 15.912C49.8862 15.736 49.6168 15.472 49.4195 15.12C49.0942 15.5093 48.6782 15.8 48.1715 15.992C47.6648 16.1787 47.1475 16.272 46.6195 16.272C45.7448 16.272 45.0462 16.024 44.5235 15.528C44.0062 15.0267 43.7475 14.384 43.7475 13.6C43.7475 12.6773 44.1075 11.9653 44.8275 11.464C45.5528 10.9627 46.5715 10.712 47.8835 10.712H49.0275V10.392C49.0275 9.94933 48.8835 9.62133 48.5955 9.408C48.3128 9.19467 47.8968 9.088 47.3475 9.088C47.0755 9.088 46.7262 9.128 46.2995 9.208C45.8728 9.28267 45.4462 9.392 45.0195 9.536L44.4355 7.856C44.9848 7.648 45.5555 7.49067 46.1475 7.384C46.7448 7.27733 47.2782 7.224 47.7475 7.224C49.0115 7.224 49.9448 7.48267 50.5475 8C51.1555 8.512 51.4595 9.25333 51.4595 10.224V13.552ZM47.4915 14.464C47.7635 14.464 48.0488 14.384 48.3475 14.224C48.6462 14.0587 48.8728 13.8267 49.0275 13.528V12.152H48.4035C47.6995 12.152 47.1822 12.2613 46.8515 12.48C46.5208 12.6933 46.3555 13.008 46.3555 13.424C46.3555 13.7493 46.4542 14.0053 46.6515 14.192C46.8542 14.3733 47.1342 14.464 47.4915 14.464ZM53.9813 16V14.304H55.1013V9.184H53.9813V7.504H57.0293L57.4933 9.416C57.7973 8.68533 58.1839 8.14133 58.6533 7.784C59.1279 7.42667 59.7066 7.248 60.3893 7.248C60.6773 7.248 60.9333 7.272 61.1573 7.32C61.3813 7.36267 61.5919 7.424 61.7893 7.504L61.0213 9.592C60.8666 9.54933 60.7119 9.51733 60.5573 9.496C60.4026 9.47467 60.2319 9.464 60.0453 9.464C59.4906 9.464 59.0026 9.69067 58.5813 10.144C58.1653 10.5973 57.8479 11.1733 57.6293 11.872V14.304H59.3093V16H53.9813ZM59.7333 11.056V8.576L60.1093 7.504H61.7893L61.3173 11.056H59.7333ZM66.511 14.088H70.767L70.527 16H63.527V14.216L67.743 9.408H63.879V7.504H70.687V9.28L66.511 14.088ZM76.1048 14.088H80.3608L80.1208 16H73.1208V14.216L77.3368 9.408H73.4728V7.504H80.2808V9.28L76.1048 14.088ZM85.6985 14.088H89.9545L89.7145 16H82.7145V14.216L86.9305 9.408H83.0665V7.504H89.8745V9.28L85.6985 14.088ZM103.776 14.488C103.776 14.1627 103.856 13.8667 104.016 13.6C104.176 13.328 104.392 13.112 104.664 12.952C104.936 12.7867 105.234 12.704 105.56 12.704C105.89 12.704 106.192 12.7867 106.464 12.952C106.73 13.112 106.944 13.328 107.104 13.6C107.264 13.8667 107.344 14.1627 107.344 14.488C107.344 14.808 107.264 15.104 107.104 15.376C106.944 15.648 106.73 15.864 106.464 16.024C106.192 16.1893 105.89 16.272 105.56 16.272C105.234 16.272 104.936 16.1893 104.664 16.024C104.392 15.864 104.176 15.648 104.016 15.376C103.856 15.104 103.776 14.808 103.776 14.488ZM110.176 14.488C110.176 14.1627 110.256 13.8667 110.416 13.6C110.576 13.328 110.792 13.112 111.064 12.952C111.336 12.7867 111.634 12.704 111.96 12.704C112.29 12.704 112.589 12.7867 112.856 12.952C113.128 13.112 113.344 13.328 113.504 13.6C113.664 13.8667 113.744 14.1627 113.744 14.488C113.744 14.808 113.664 15.104 113.504 15.376C113.344 15.648 113.128 15.864 112.856 16.024C112.589 16.1893 112.29 16.272 111.96 16.272C111.634 16.272 111.336 16.1893 111.064 16.024C110.792 15.864 110.576 15.648 110.416 15.376C110.256 15.104 110.176 14.808 110.176 14.488ZM97.3757 14.488C97.3757 14.1627 97.4557 13.8667 97.6157 13.6C97.7757 13.328 97.9917 13.112 98.2637 12.952C98.5357 12.7867 98.8344 12.704 99.1597 12.704C99.4904 12.704 99.7917 12.7867 100.064 12.952C100.33 13.112 100.544 13.328 100.704 13.6C100.864 13.8667 100.944 14.1627 100.944 14.488C100.944 14.808 100.864 15.104 100.704 15.376C100.544 15.648 100.33 15.864 100.064 16.024C99.7917 16.1893 99.4904 16.272 99.1597 16.272C98.8344 16.272 98.5357 16.1893 98.2637 16.024C97.9917 15.864 97.7757 15.648 97.6157 15.376C97.4557 15.104 97.3757 14.808 97.3757 14.488Z" fill="white"/>
</svg>
